<svg viewBox="0 0 16 16" fill="none" xmlns="http://www.w3.org/2000/svg">
<path d="M10.0001 2.66669C11.4146 2.66669 12.7711 3.22859 13.7713 4.22878C14.7715 5.22898 15.3334 6.58553 15.3334 8.00002C15.3334 9.41451 14.7715 10.7711 13.7713 11.7713C12.7711 12.7715 11.4146 13.3334 10.0001 13.3334C8.58559 13.3334 7.22904 12.7715 6.22884 11.7713C5.22865 10.7711 4.66675 9.41451 4.66675 8.00002C4.66675 6.58553 5.22865 5.22898 6.22884 4.22878C7.22904 3.22859 8.58559 2.66669 10.0001 2.66669ZM10.0001 4.00002C8.93921 4.00002 7.9218 4.42145 7.17165 5.17159C6.42151 5.92174 6.00008 6.93915 6.00008 8.00002C6.00008 9.06089 6.42151 10.0783 7.17165 10.8284C7.9218 11.5786 8.93921 12 10.0001 12C11.0609 12 12.0784 11.5786 12.8285 10.8284C13.5787 10.0783 14.0001 9.06089 14.0001 8.00002C14.0001 6.93915 13.5787 5.92174 12.8285 5.17159C12.0784 4.42145 11.0609 4.00002 10.0001 4.00002ZM9.33341 5.33335H10.3334V7.85335L11.8867 9.40669L11.1801 10.1134L9.33341 8.26669V5.33335ZM1.33341 12C1.1566 12 0.987034 11.9298 0.86201 11.8048C0.736986 11.6797 0.666748 11.5102 0.666748 11.3334C0.666748 11.1565 0.736986 10.987 0.86201 10.8619C0.987034 10.7369 1.1566 10.6667 1.33341 10.6667H3.88675C4.09341 11.14 4.36008 11.5867 4.66675 12H1.33341ZM2.00008 8.66669C1.82327 8.66669 1.6537 8.59645 1.52868 8.47142C1.40365 8.3464 1.33341 8.17683 1.33341 8.00002C1.33341 7.82321 1.40365 7.65364 1.52868 7.52862C1.6537 7.40359 1.82327 7.33335 2.00008 7.33335H3.36675L3.33341 8.00002L3.36675 8.66669H2.00008ZM2.66675 5.33335C2.48994 5.33335 2.32037 5.26312 2.19534 5.13809C2.07032 5.01307 2.00008 4.8435 2.00008 4.66669C2.00008 4.48988 2.07032 4.32031 2.19534 4.19528C2.32037 4.07026 2.48994 4.00002 2.66675 4.00002H4.66675C4.36008 4.41335 4.09341 4.86002 3.88675 5.33335H2.66675Z" fill="white"/>
</svg>
