<svg viewBox="0 0 12 12" fill="none" xmlns="http://www.w3.org/2000/svg">
<path d="M6 12C5.1875 12 4.41016 11.8418 3.66797 11.5254C2.92578 11.209 2.28711 10.7832 1.75195 10.248C1.2168 9.71289 0.791016 9.07422 0.474609 8.33203C0.158203 7.58984 0 6.8125 0 6C0 5.1875 0.158203 4.41016 0.474609 3.66797C0.791016 2.92578 1.2168 2.28711 1.75195 1.75195C2.28711 1.2168 2.92578 0.791016 3.66797 0.474609C4.41016 0.158203 5.1875 0 6 0C6.8125 0 7.58984 0.158203 8.33203 0.474609C9.07422 0.791016 9.71289 1.2168 10.248 1.75195C10.7832 2.28711 11.209 2.92578 11.5254 3.66797C11.8418 4.41016 12 5.1875 12 6C12 6.8125 11.8418 7.58984 11.5254 8.33203C11.209 9.07422 10.7832 9.71289 10.248 10.248C9.71289 10.7832 9.07422 11.209 8.33203 11.5254C7.58984 11.8418 6.8125 12 6 12ZM3.43359 3.43359L2.87109 2.94141C2.78516 2.94141 2.68359 2.95117 2.56641 2.9707C2.44922 2.99023 2.34375 3 2.25 3C2.24219 2.99219 2.17188 2.84766 2.03906 2.56641C1.17969 3.55859 0.75 4.70312 0.75 6C0.75 6.02344 0.751953 6.05469 0.755859 6.09375C0.759766 6.13281 0.761719 6.16016 0.761719 6.17578C0.808594 6.22266 0.923828 6.31055 1.10742 6.43945C1.29102 6.56836 1.42188 6.67188 1.5 6.75H2.25C2.27344 6.73438 2.29492 6.72266 2.31445 6.71484C2.33398 6.70703 2.35547 6.69922 2.37891 6.69141C2.30078 6.60547 2.18555 6.47852 2.0332 6.31055C1.88086 6.14258 1.76562 6.01953 1.6875 5.94141C1.71875 5.76172 1.76172 5.49023 1.81641 5.12695C1.87109 4.76367 1.91016 4.49219 1.93359 4.3125C2.60547 4.03125 3.10547 3.82422 3.43359 3.69141V3.43359ZM5.78906 1.52344C5.67969 1.47656 5.57812 1.43359 5.48438 1.39453C5.46094 1.33203 5.44531 1.28516 5.4375 1.25391C5.39062 1.40234 5.31641 1.625 5.21484 1.92188C5.24609 1.92969 5.29102 1.9375 5.34961 1.94531C5.4082 1.95312 5.45312 1.96094 5.48438 1.96875H5.78906V1.52344ZM5.74219 7.04297C5.70312 7.08203 5.67578 7.11328 5.66016 7.13672C5.56641 7.30078 5.43359 7.55078 5.26172 7.88672C5.08984 8.22266 4.96094 8.47266 4.875 8.63672C4.98438 8.80078 5.15039 9.05078 5.37305 9.38672C5.5957 9.72266 5.76172 9.97266 5.87109 10.1367C6.88672 10.1992 7.65625 10.2461 8.17969 10.2773C8.19531 10.4727 8.25781 10.6055 8.36719 10.6758C9.07812 10.3164 9.67969 9.81836 10.1719 9.18164C10.6641 8.54492 10.9883 7.83203 11.1445 7.04297C10.9961 7.01172 10.834 6.96875 10.6582 6.91406C10.4824 6.85938 10.3555 6.82227 10.2773 6.80273C10.1992 6.7832 10.0449 6.76367 9.81445 6.74414C9.58398 6.72461 9.34375 6.73828 9.09375 6.78516C9 6.79297 8.93945 6.73242 8.91211 6.60352C8.88477 6.47461 8.87109 6.3418 8.87109 6.20508C8.87109 6.06836 8.85547 5.99609 8.82422 5.98828C8.65234 5.95703 8.30469 5.98633 7.78125 6.07617C7.25781 6.16602 6.91016 6.19531 6.73828 6.16406C6.63672 6.25781 6.30469 6.55078 5.74219 7.04297ZM6.43359 1.17188C6.41016 1.32812 6.36914 1.5625 6.31055 1.875C6.25195 2.1875 6.20703 2.42578 6.17578 2.58984C6.21484 2.58203 6.2793 2.57227 6.36914 2.56055C6.45898 2.54883 6.52344 2.54297 6.5625 2.54297C6.53906 2.52734 6.51172 2.51172 6.48047 2.49609C6.59766 2.45703 6.68359 2.42578 6.73828 2.40234C6.60547 1.85547 6.50391 1.44531 6.43359 1.17188ZM7.79297 1.06641C7.77734 1.15234 7.76953 1.27344 7.76953 1.42969C7.76953 1.58594 7.73047 1.79297 7.65234 2.05078C7.66016 2.06641 7.67578 2.08203 7.69922 2.09766C7.85547 2.08203 8.11719 2.05469 8.48438 2.01562C8.48438 1.85156 8.56641 1.6875 8.73047 1.52344C8.43359 1.34375 8.12109 1.19141 7.79297 1.06641ZM9.25781 1.88672C9.24219 1.91797 9.21484 1.96094 9.17578 2.01562C9.32422 2.03906 9.42188 2.05859 9.46875 2.07422C9.375 1.98828 9.30469 1.92578 9.25781 1.88672ZM9.57422 2.16797C9.55078 2.21484 9.51367 2.28516 9.46289 2.37891C9.41211 2.47266 9.375 2.54297 9.35156 2.58984C9.125 2.59766 8.82031 2.60938 8.4375 2.625L8.39062 2.22656C8.375 2.23438 8.34766 2.24414 8.30859 2.25586C8.26953 2.26758 8.23828 2.27344 8.21484 2.27344V2.84766C8.05078 2.86328 7.79883 2.88672 7.45898 2.91797C7.11914 2.94922 6.86719 2.97266 6.70312 2.98828C6.64844 3.06641 6.58984 3.15234 6.52734 3.24609C6.73828 3.69922 6.89844 4.03906 7.00781 4.26562C6.85156 4.30469 6.53125 4.39062 6.04688 4.52344V4.92188C6.04688 4.9375 6.05273 4.96094 6.06445 4.99219C6.07617 5.02344 6.08594 5.04688 6.09375 5.0625C6.22656 5.125 6.43359 5.21875 6.71484 5.34375C6.99609 5.46875 7.20703 5.56641 7.34766 5.63672L7.60547 5.32031C7.59766 5.24219 7.57812 5.11914 7.54688 4.95117C7.51562 4.7832 7.49219 4.65625 7.47656 4.57031C7.5 4.55469 7.53711 4.5332 7.58789 4.50586C7.63867 4.47852 7.67578 4.45703 7.69922 4.44141C7.91016 4.37891 8.07031 4.33594 8.17969 4.3125C8.28125 4.47656 8.42383 4.71094 8.60742 5.01562C8.79102 5.32031 8.90625 5.51172 8.95312 5.58984C9.02344 5.52734 9.12109 5.43164 9.24609 5.30273C9.37109 5.17383 9.46484 5.07812 9.52734 5.01562C9.10547 4.71875 8.82812 4.52734 8.69531 4.44141C8.70312 4.37891 8.71875 4.28906 8.74219 4.17188H9.17578C9.61328 4.54688 10.0625 4.92969 10.5234 5.32031C10.5312 5.32031 10.5391 5.31445 10.5469 5.30273C10.5547 5.29102 10.5625 5.28516 10.5703 5.28516C10.5391 5.22266 10.4375 5.03125 10.2656 4.71094C10.2656 4.70312 10.2773 4.6875 10.3008 4.66406L10.3477 4.61719H10.8281C10.8359 4.60938 10.9023 4.57422 11.0273 4.51172C10.7617 3.60547 10.2773 2.82422 9.57422 2.16797Z" fill="white"/>
</svg>
